PathFileType	4	(X/Y/Z)	Patient4_TMGait_0pt5_02_right_43.trc.trc
DataRate	CameraRate	NumFrames	NumMarkers	Units	OrigDataRate	OrigDataStartFrame	OrigNumFrames
79.545454545455	79.545454545455	6	33	mm	79.545454545455	53	       141
Frame#	Time	Sacral			L.Shoulder			Chest			R.Shoulder			Neck			R.ASIS			L.ASIS			R.Thigh.Superior			R.Thigh.Lateral			R.Thigh.Inferior			R.Patella			L.Thigh.Superior			L.Thigh.Lateral			L.Thigh.Inferior			L.Patella			L.Shank.Superior			L.Shank.Lateral			L.Shank.Inferior			R.Shank.Superior			R.Shank.Lateral			R.Shank.Inferior			R.Heel			R.Midfoot.Superior			R.Midfoot.Lateral			R.Toe			L.Heel			L.Midfoot.Lateral			L.Midfoot.Superior			L.Toe			L.Elbow			L.Wrist			R.Elbow			R.Wrist			
		X1	Y1	Z1	X2	Y2	Z2	X3	Y3	Z3	X4	Y4	Z4	X5	Y5	Z5	X6	Y6	Z6	X7	Y7	Z7	X8	Y8	Z8	X9	Y9	Z9	X10	Y10	Z10	X11	Y11	Z11	X12	Y12	Z12	X13	Y13	Z13	X14	Y14	Z14	X15	Y15	Z15	X16	Y16	Z16	X17	Y17	Z17	X18	Y18	Z18	X19	Y19	Z19	X20	Y20	Z20	X21	Y21	Z21	X22	Y22	Z22	X23	Y23	Z23	X24	Y24	Z24	X25	Y25	Z25	X26	Y26	Z26	X27	Y27	Z27	X28	Y28	Z28	X29	Y29	Z29	X30	Y30	Z30	X31	Y31	Z31	X32	Y32	Z32	X33	Y33	Z33	

53	56.783714285714	695.015136737933	1020.455905838243	524.651294852028	911.365567488545	1425.714830023847	338.067239742197	1004.751705559469	1353.519627593503	503.997658659346	924.797407111134	1439.467187732371	674.615856898061	914.723217146665	1492.970824014876	487.007572947646	914.230340608105	940.817732861587	648.965533804625	908.856735196613	960.449304351354	375.417278841341	951.284933150122	738.827389919279	616.345273927451	864.095627865055	634.859668270482	671.304552786556	938.702565765402	579.967281463685	590.635972877436	934.664652205717	490.870509036664	593.133463673392	990.916826128891	787.204773594274	412.952256740816	959.747113349590	664.918848818432	326.807523135019	1059.412051292549	605.564752733884	397.186350245402	1079.409374406561	518.832651472772	389.832511575349	1023.905685424742	447.945277491165	373.161211438855	896.481577336804	383.728156145387	314.350353919280	906.394673515467	251.750205448384	361.522232321527	904.375592467668	403.841115732903	599.185610885145	830.617043972270	302.391522053048	660.777131981586	867.133503132927	206.789653660878	595.304152606402	725.790235737335	44.931669098184	568.377825702148	898.640514005093	97.157604693190	600.256374321746	810.901410653303	37.191790100288	640.658701729966	1019.161742671310	40.266197919756	623.955668886434	730.257823453794	159.652668032856	388.535247741370	793.292120536943	127.103544178872	306.806939372999	895.611579895477	142.491838900194	331.553239948650	982.904409810894	41.440388169501	296.858060627339	838.340670423540	1072.233105468018	236.472644670302	862.945729143952	815.070661255248	216.963070294262	923.164534838618	1105.606311551076	821.172709170239	1154.485829755914	999.618892537279	793.317004952006	
54	56.796285714286	693.565801067146	1021.143016885036	526.334274244242	909.854618613900	1425.759782790348	338.316570125729	1004.531077052048	1352.849930215660	503.161281169164	926.959848266946	1439.181254763517	674.630719360991	915.256314939958	1492.810708700368	487.215163002244	913.232248056003	940.405047019134	648.023338515309	905.633604030794	961.196553817677	374.564163486788	948.598501753239	738.229716446322	614.626813082254	861.225041201693	634.990550729014	670.807590182128	934.557712468981	579.559042012820	589.556228199148	929.867368843323	490.449698816150	592.306608595660	988.485402141361	789.359985685308	411.932101679960	957.793515490368	666.635196731132	326.050386827383	1057.925051315775	608.113643339768	396.288682528158	1079.533194356589	522.943271916382	388.866104519454	1027.777689059358	451.008214078488	372.096448394128	905.017141611597	379.062000461308	313.165157939914	923.385199897508	247.829312903497	360.555244895794	899.313289363246	403.505622293943	598.645804499561	825.397131174886	302.334632504928	660.530647144607	861.342869241637	206.558038761687	595.021347919053	719.474418913352	44.940757018704	568.392094841805	892.313326104336	97.104099745224	600.208041810227	804.578734908852	37.181423648579	640.683100483782	1012.829695301845	40.217021110454	623.992265282258	754.019549997215	143.055809690965	387.926210660108	819.237106089947	116.103508834245	305.848620145828	920.072063125316	138.938358548408	330.475185743851	1014.799730055891	45.294100358740	295.128337339418	832.152975183854	1073.295853882957	236.385660351971	854.937312413882	816.035990630212	215.972595158150	930.494533455108	1106.250723400270	821.989091921271	1165.798764200280	1012.665898629660	789.456601217267	
55	56.808857142857	692.166024817134	1021.842180710864	527.949499662749	908.279251618302	1425.853766503913	338.494344289029	1004.311450417129	1352.182130330266	502.172509473738	929.204821755005	1438.841941345434	674.538045158369	915.770198887766	1492.648384422504	487.352517415043	912.295598060292	939.968698049296	646.872927577206	902.393584626860	961.950209207252	373.531885175165	945.923697243982	737.610561299113	612.770713356272	858.371166732069	635.120164225704	670.218463651750	930.359261943793	579.144719029823	588.356964355075	925.030808434410	490.044201408623	591.393915250939	985.648434831118	791.120111865828	410.680827783851	955.179209207165	667.988619951887	325.095962871884	1055.506199791749	610.068284078707	395.367232968745	1078.694200515026	526.693705368048	387.935823168294	1030.864534338048	453.908031365482	371.148586616900	913.709159598032	374.193216547982	311.597181981023	940.377179148649	244.298413446416	359.664060119420	894.221369442708	403.178437286404	598.039159248831	820.179072522207	302.294570753393	660.258058474948	855.537469791167	206.339550629274	594.709158914078	713.150809464862	44.959938101200	568.412178276410	885.980650870192	97.043123626496	600.130649703259	798.255011246333	37.171355587235	640.707538485607	1006.497438226754	40.169119634859	624.019286073915	778.614555227909	127.187913319438	386.680857325769	846.166689996288	105.712533850464	304.808010296517	944.829253051006	136.008147131099	329.818419473229	1046.700316085943	50.124030478415	294.850248795258	826.364140938927	1074.360574053255	236.268505016128	847.673657750293	817.019509091652	214.892289768312	937.769970005584	1106.801955462383	822.406389123422	1176.143272926213	1025.383790237297	785.038099585273	
56	56.821428571429	690.813287203717	1022.552636391865	529.457527645570	906.673032070229	1425.986966999492	338.583962349849	1004.086797486082	1351.524832126990	501.043688282667	931.474648487443	1438.463794612190	674.317944063126	916.253530560895	1492.485690262573	487.396624823872	911.410055452838	939.516126958839	645.546621657648	899.186582204257	962.696497653440	372.345829973710	943.264205081578	736.967877747217	610.826502853704	855.539937094016	635.229379985509	669.548139386828	926.135012688712	578.715491399549	587.059781888744	920.190238167577	489.644101528206	590.406906249259	982.445163092859	792.470589631176	409.266721820010	952.028557256570	669.003424995995	323.930230201533	1052.254559856295	611.448059968346	394.448885548637	1076.990210455483	530.069255353959	387.062210696247	1033.170799338955	456.635535420319	370.334862503287	922.438466945982	369.347347610548	309.692142579163	957.008194975333	241.364307727825	358.899229590592	889.126142110824	402.853695043322	597.371373166713	814.976252765820	302.272149644438	659.958631275711	849.727561305193	206.133420740641	594.369346814617	706.820040823353	44.988463878616	568.437884859428	879.642051183528	96.976776352730	600.023246263494	791.930125824441	37.164788635239	640.732093108592	1000.164117809245	40.125154342468	624.037481623216	803.478695465365	112.601231440232	384.879845934572	873.486556518186	96.329384502516	303.770728931939	969.332315216894	133.906460028313	329.632601400381	1077.868197494423	55.931227269577	296.101618792077	821.050009948386	1075.393231131269	236.115606320287	841.159902009921	817.985979869405	213.730038558602	944.961099452122	1107.253262014901	822.394320198305	1185.545089975987	1037.633888083905	780.096389383101	
57	56.834000000000	689.506888816429	1023.265468366604	530.815953513507	905.069992920160	1426.146707028349	338.569824867619	1003.850780200431	1350.883004164149	499.790066487974	933.711698465701	1438.059401726269	673.953899650912	916.695704611537	1492.322080707294	487.327329325611	910.567344526052	939.052638629782	644.078549186269	896.060482128221	963.416134451173	371.031763354456	940.627029612243	736.298076854222	608.838895807504	852.739973828103	635.296445947186	668.805286974502	921.920071824681	578.260241849669	585.684654490890	915.385553799539	489.236438475826	589.353899832785	978.939724691488	793.412220522268	407.754045867597	948.484412309379	669.713443735722	322.548430197883	1048.313998713618	612.299575190419	393.540677069657	1074.545776236904	533.061690025668	386.241188577490	1034.722718418944	459.171258458635	369.634624531782	931.005895863742	364.720136891176	307.544135193714	972.900290020857	239.149103406920	358.288761891986	884.058049907117	402.523495648934	596.646170944681	809.804253886598	302.266217957232	659.628746825958	843.924985105910	205.936430056236	594.002515481056	700.483562266350	45.025302409987	568.467969147360	873.297783377060	96.907714157650	599.887026935886	785.604145440173	37.164442386237	640.756224348853	993.828500916105	40.086678429850	624.047668715976	827.982884876989	99.697560251126	382.700807530287	900.496339870229	88.228205516848	302.840174098467	992.995033772818	132.730115151901	329.906915452854	1107.565208740119	62.600021662042	298.755922705479	816.259925051944	1076.364372981458	235.911169897349	835.403868315341	818.907318629567	212.491014629140	952.030825813036	1107.600097228287	821.925977032710	1194.039183147381	1049.280707106963	774.670249234128	
58	56.846571428571	688.249535326236	1023.962544496730	531.980832802822	903.501062895578	1426.317266109193	338.437542495772	1003.596168479631	1350.257515555283	498.428591917713	935.859282417129	1437.637942671220	673.433974505805	917.085283841721	1492.154132590236	487.128021399723	909.762413459908	938.580450150024	642.502012602139	893.061124590911	964.083527516875	369.614855254476	938.023418301710	735.595724259487	606.847587470023	849.981842862239	635.298828104384	667.997265961220	917.754738249993	577.764925179823	584.250606004756	910.659088506047	488.805960411414	588.241972474022	975.222832868840	793.959522533520	406.197204468597	944.696208073932	670.152603683963	320.963749286040	1043.866322280175	612.687240149475	392.631152148302	1071.502947229037	535.659425635093	385.447016534811	1035.561662780176	461.479414314926	368.996353905613	939.140291025077	360.457365290328	305.288121432011	987.674131779358	237.678899127005	357.837972855711	879.049985427259	402.177954057322	595.866833528098	804.679467271302	302.273039956786	659.263054340169	838.141913224862	205.742974610126	593.608953230168	694.143005594049	45.069291988548	568.500394943282	866.948632917488	96.838999492135	599.726155363682	779.277042893807	37.171840947430	640.778905003331	987.488885681847	40.054154897102	624.050703126742	851.464124081433	88.708131773290	380.400353301553	926.419567872764	81.542173176433	302.124620564645	1015.217582670440	132.457710028465	330.571869642015	1135.076367083180	69.895151994360	302.488649364188	812.016599884847	1077.249290708722	235.631386992093	830.412949639392	819.760520896139	211.175750291487	958.935387051839	1107.838088737153	820.980314068612	1201.666578921523	1060.195708590250	768.800628570265	
